<svg xmlns="http://www.w3.org/2000/svg" width="2690" height="608" fill="none"><path stroke="#000" stroke-opacity=".2" d="M-195 33.702h2934M-195 82.603h2934m-2934 48.899h2934m-2934 48.901h2934m-2934 48.9h2934m-2934 48.9h2934m-2934 48.9h2934m-2934 48.899h2934m-2934 48.901h2934m-2934 48.899h2934m-2934 48.9h2934m-2934 48.901h2934m-97.3-1270.901V1308.05m-48.9-2007.348V1308.05m-48.9-2007.348V1308.05M2495-699.298V1308.05m-48.9-2007.348V1308.05m-48.9-2007.348V1308.05m-48.9-2007.348V1308.05m-48.9-2007.348V1308.05m-48.9-2007.348V1308.05m-48.9-2007.348V1308.05m-48.9-2007.348V1308.05m-48.9-2007.348V1308.05m-48.9-2007.348V1308.05M2006-699.298V1308.05m-48.9-2007.348V1308.05m-48.9-2007.348V1308.05m-48.9-2007.348V1308.05m-48.9-2007.348V1308.05m-48.9-2007.348V1308.05m-48.9-2007.348V1308.05m-48.9-2007.348V1308.05m-48.9-2007.348V1308.05m-48.9-2007.348V1308.05M1517-699.298V1308.05m-48.9-2007.348V1308.05m-48.9-2007.348V1308.05m-48.9-2007.348V1308.05m-48.9-2007.348V1308.05m-48.9-2007.348V1308.05m-48.9-2007.348V1308.05m-48.9-2007.348V1308.05m-48.9-2007.348V1308.05m-48.9-2007.348V1308.05M1028-699.298V1308.05M979.099-699.298V1308.05M930.198-699.298V1308.05M881.299-699.298V1308.05m-48.9-2007.348V1308.05m-48.9-2007.348V1308.05m-48.9-2007.348V1308.05M685.698-699.298V1308.05m-48.9-2007.348V1308.05M587.899-699.298V1308.05m-48.9-2007.348V1308.05M490.098-699.298V1308.05M441.199-699.298V1308.05m-48.9-2007.348V1308.05m-48.9-2007.348V1308.05m-48.9-2007.348V1308.05m-48.9-2007.348V1308.05m-48.9-2007.348V1308.05M147.801-699.298V1308.05m-48.9-2007.348V1308.05m-48.9-2007.348L50 1308.05M1.101-699.298V1308.05"/></svg>